<?xml version="1.0" encoding="UTF-8"?>
<svg id="Layer_1" data-name="Layer 1" xmlns="http://www.w3.org/2000/svg" viewBox="0 0 354.8 354.8">
  <defs>
    <style>
      .cls-1 {
        fill: #fff;
      }

      .cls-2 {
        fill: #e6e7e8;
        stroke: #231f20;
        stroke-miterlimit: 10;
        stroke-width: 4px;
      }

      .cls-3 {
        fill: #3855a5;
      }
    </style>
  </defs>
  <rect class="cls-3" x="2" y="130.28" width="38.1" height="224.52"/>
  <polygon class="cls-3" points="354.8 6 354.8 49.36 267.17 49.36 267.17 354.8 229.07 354.8 229.07 49.36 141.44 49.36 141.44 6 354.8 6"/>
  <ellipse class="cls-2" cx="107.84" cy="109.53" rx="105.84" ry="107.53"/>
  <path class="cls-1" d="M168.37,45.23c-.1-1.84-16.05-28.4-57.19-30.97-24.53-1.53-47.2,10.87-47.09,12.71s31.68-7.55,59.81-2.87c21.85,3.63,44.58,22.97,44.47,21.13Z"/>
  <path class="cls-1" d="M144.09,187.93c-.61,1.71-23.14,21.13-62.87,8.69-23.69-7.42-41.72-27.36-41.11-29.07s27.94,18.61,55.91,24.34c21.73,4.45,48.68-5.67,48.07-3.96Z"/>
</svg>